<svg xmlns="http://www.w3.org/2000/svg" width="7.868" height="14.553" viewBox="0 0 7.868 14.553">
  <g id="facebook-logo" transform="translate(-25.474 -2.584)">
    <path id="Path_1" data-name="Path 1" d="M29.649,0,27.762,0a3.314,3.314,0,0,0-3.49,3.582V5.233h-1.9a.3.3,0,0,0-.3.3V7.922a.3.3,0,0,0,.3.3h1.9v6.037a.3.3,0,0,0,.3.3h2.476a.3.3,0,0,0,.3-.3V8.219h2.219a.3.3,0,0,0,.3-.3V5.53a.3.3,0,0,0-.3-.3H27.34v-1.4c0-.673.16-1.014,1.037-1.014h1.271a.3.3,0,0,0,.3-.3V.3A.3.3,0,0,0,29.649,0Z" transform="translate(3.397 2.584)" fill="#95989a"/>
  </g>
</svg>
