<svg id="instagram-logo" xmlns="http://www.w3.org/2000/svg" width="14.938" height="14.938" viewBox="0 0 14.938 14.938">
  <path id="Path_3" data-name="Path 3" d="M10.815,0H4.122A4.127,4.127,0,0,0,0,4.122v6.693a4.127,4.127,0,0,0,4.122,4.122h6.693a4.127,4.127,0,0,0,4.122-4.122V4.122A4.127,4.127,0,0,0,10.815,0Zm2.8,10.816a2.8,2.8,0,0,1-2.8,2.8H4.122a2.8,2.8,0,0,1-2.8-2.8V4.122a2.8,2.8,0,0,1,2.8-2.8h6.693a2.8,2.8,0,0,1,2.8,2.8v6.693Z" fill="#95989a"/>
  <path id="Path_4" data-name="Path 4" d="M44.817,40.97a3.849,3.849,0,1,0,3.849,3.849A3.853,3.853,0,0,0,44.817,40.97Zm0,6.373a2.524,2.524,0,1,1,2.524-2.524A2.527,2.527,0,0,1,44.817,47.343Z" transform="translate(-37.348 -37.35)" fill="#95989a"/>
  <path id="Path_5" data-name="Path 5" d="M119.893,28.251a.971.971,0,1,0,.687.285A.976.976,0,0,0,119.893,28.251Z" transform="translate(-108.413 -25.755)" fill="#95989a"/>
</svg>
