<svg xmlns="http://www.w3.org/2000/svg" width="15.136" height="14.463" viewBox="0 0 15.136 14.463">
  <path id="LinkedIn" d="M15.136,18.425v5.6H11.892V18.8c0-1.312-.469-2.207-1.643-2.207A1.775,1.775,0,0,0,8.584,17.78a2.22,2.22,0,0,0-.108.791v5.45H5.231s.044-8.843,0-9.759H8.476v1.383l-.021.032h.021v-.032A3.222,3.222,0,0,1,11.4,14.033C13.535,14.033,15.136,15.428,15.136,18.425ZM1.836,9.558a1.691,1.691,0,1,0-.043,3.373h.022a1.692,1.692,0,1,0,.021-3.373ZM.193,24.021H3.437V14.262H.193Z" transform="translate(0 -9.558)" fill="#95989a"/>
</svg>
