<svg xmlns="http://www.w3.org/2000/svg" width="17.673" height="14.355" viewBox="0 0 17.673 14.355">
  <g id="twitter-logo-silhouette" transform="translate(-0.001 -57.441)">
    <g id="Group_20" data-name="Group 20" transform="translate(0.001 57.441)">
      <path id="Path_2" data-name="Path 2" d="M17.674,59.139a7.24,7.24,0,0,1-2.082.571,3.641,3.641,0,0,0,1.594-2,7.309,7.309,0,0,1-2.3.88A3.628,3.628,0,0,0,8.7,61.892,10.293,10.293,0,0,1,1.232,58.1a3.63,3.63,0,0,0,1.122,4.839,3.626,3.626,0,0,1-1.642-.455v.045A3.629,3.629,0,0,0,3.62,66.088a3.672,3.672,0,0,1-.955.127,3.479,3.479,0,0,1-.682-.067,3.627,3.627,0,0,0,3.386,2.518,7.274,7.274,0,0,1-4.5,1.549A7.7,7.7,0,0,1,0,70.165,10.248,10.248,0,0,0,5.558,71.8,10.244,10.244,0,0,0,15.873,61.482l-.012-.469A7.24,7.24,0,0,0,17.674,59.139Z" transform="translate(-0.001 -57.441)" fill="#95989a"/>
    </g>
  </g>
</svg>
