<svg xmlns="http://www.w3.org/2000/svg" width="11.667" height="14" viewBox="0 0 11.667 14">
  <path id="YouTube" d="M17.368,10.241H16.6l0-.446a.362.362,0,0,1,.362-.361h.049a.363.363,0,0,1,.363.361Zm-2.882-.956a.328.328,0,0,0-.354.291v2.171a.362.362,0,0,0,.71,0V9.576A.329.329,0,0,0,14.487,9.284Zm4.68-1.214V12.2A1.863,1.863,0,0,1,17.258,14H9.409A1.863,1.863,0,0,1,7.5,12.2V8.07a1.863,1.863,0,0,1,1.909-1.8h7.849A1.863,1.863,0,0,1,19.167,8.07ZM9.932,12.648V8.3H10.9V7.654l-2.594,0v.634l.81,0v4.362Zm2.917-3.7h-.811v2.323a4.117,4.117,0,0,1,0,.563c-.066.18-.362.371-.478.019a4.623,4.623,0,0,1,0-.567l0-2.339h-.807l0,2.3c0,.353-.008.616,0,.736.02.211.013.457.209.6a.98.98,0,0,0,1.239-.415l0,.48h.651v-3.7Zm2.6,2.66,0-1.933c0-.737-.552-1.178-1.3-.582l0-1.437h-.81l0,4.961.666-.01.061-.309C14.91,13.078,15.446,12.543,15.444,11.606Zm2.539-.256-.608,0c0,.024,0,.052,0,.082v.339a.332.332,0,0,1-.332.33h-.119a.332.332,0,0,1-.333-.33v-.893h1.393v-.524a8.271,8.271,0,0,0-.042-.985c-.1-.693-1.072-.8-1.564-.448a.916.916,0,0,0-.34.458,2.579,2.579,0,0,0-.1.817v1.153C15.933,13.268,18.261,13,17.983,11.35Zm-3.12-6.258a.552.552,0,0,0,.2.246.565.565,0,0,0,.332.092.516.516,0,0,0,.311-.1.745.745,0,0,0,.228-.291l-.015.318h.9V1.515h-.712V4.508a.3.3,0,0,1-.593,0V1.515H14.77V4.109c0,.33.006.551.016.662A1.115,1.115,0,0,0,14.863,5.092ZM12.123,2.92a3.2,3.2,0,0,1,.092-.865.926.926,0,0,1,.945-.688,1.122,1.122,0,0,1,.538.121.9.9,0,0,1,.347.315,1.245,1.245,0,0,1,.167.4,3.193,3.193,0,0,1,.045.63v.973a5.265,5.265,0,0,1-.042.786,1.245,1.245,0,0,1-.178.467.845.845,0,0,1-.348.32,1.11,1.11,0,0,1-.491.1,1.363,1.363,0,0,1-.523-.088.718.718,0,0,1-.334-.267,1.184,1.184,0,0,1-.17-.431,4.155,4.155,0,0,1-.05-.758V2.92Zm.708,1.528a.361.361,0,1,0,.719,0V2.4a.361.361,0,1,0-.719,0Zm-2.5,1.034h.853V2.532L12.19.005h-.933l-.536,1.877L10.178,0H9.255l1.072,2.533Z" transform="translate(-7.5)" fill="#95989a"/>
</svg>
